<?xml version="1.0" encoding="utf-8"?>
<!-- Generator: Adobe Illustrator 25.3.1, SVG Export Plug-In . SVG Version: 6.00 Build 0)  -->
<svg version="1.1" id="Layer_1" xmlns="http://www.w3.org/2000/svg" xmlns:xlink="http://www.w3.org/1999/xlink" x="0px" y="0px"
	 viewBox="0 0 348 348" style="enable-background:new 0 0 348 348;" xml:space="preserve">
<style type="text/css">
	.st0{fill:none;stroke:#000000;stroke-width:2;}
	.st1{fill:#FFFFFF;stroke:#000000;stroke-miterlimit:10;}
	.st2{fill:#231F20;stroke:#000000;stroke-miterlimit:10;}
</style>
<path class="st0" d="M5.1,5.8H342v337.7H5.1L5.1,5.8z"/>
<path class="st0" d="M282.7,40.6c0-8.4,7-15.2,15.6-15.2c4.1,0,8.1,1.6,11,4.4c2.9,2.8,4.6,6.7,4.6,10.7c0,8.4-7,15.2-15.6,15.2
	C289.7,55.7,282.7,48.9,282.7,40.6L282.7,40.6z"/>
<g>
	<circle class="st1" cx="45.2" cy="94.6" r="25.3"/>
	
		<rect x="32.2" y="81.6" transform="matrix(0.7071 0.7071 -0.7071 0.7071 80.1298 -4.2517)" class="st2" width="26.1" height="26.1"/>
</g>
<g>
	<circle class="st1" cx="45.2" cy="148.6" r="25.3"/>
	
		<rect x="32.2" y="135.6" transform="matrix(0.7071 0.7071 -0.7071 0.7071 118.3278 11.5704)" class="st2" width="26.1" height="26.1"/>
</g>
<g>
	<circle class="st1" cx="45.2" cy="202.6" r="25.3"/>
	
		<rect x="32.2" y="189.6" transform="matrix(0.7071 0.7071 -0.7071 0.7071 156.5259 27.3926)" class="st2" width="26.1" height="26.1"/>
</g>
<g>
	<circle class="st1" cx="45.2" cy="256.7" r="25.3"/>
	
		<rect x="32.2" y="243.6" transform="matrix(0.7071 0.7071 -0.7071 0.7071 194.7239 43.2147)" class="st2" width="26.1" height="26.1"/>
</g>
<g>
	<circle class="st1" cx="45.2" cy="310.7" r="25.3"/>
	
		<rect x="32.2" y="297.6" transform="matrix(0.7071 0.7071 -0.7071 0.7071 232.922 59.0369)" class="st2" width="26.1" height="26.1"/>
</g>
<g>
	<circle class="st1" cx="99.2" cy="94.6" r="25.3"/>
	
		<rect x="86.2" y="81.6" transform="matrix(0.7071 0.7071 -0.7071 0.7071 95.952 -42.4498)" class="st2" width="26.1" height="26.1"/>
</g>
<g>
	<circle class="st1" cx="99.2" cy="148.6" r="25.3"/>
	
		<rect x="86.2" y="135.6" transform="matrix(0.7071 0.7071 -0.7071 0.7071 134.15 -26.6276)" class="st2" width="26.1" height="26.1"/>
</g>
<g>
	<circle class="st1" cx="99.2" cy="202.6" r="25.3"/>
	
		<rect x="86.2" y="189.6" transform="matrix(0.7071 0.7071 -0.7071 0.7071 172.348 -10.8055)" class="st2" width="26.1" height="26.1"/>
</g>
<g>
	<circle class="st1" cx="99.2" cy="256.7" r="25.3"/>
	
		<rect x="86.2" y="243.6" transform="matrix(0.7071 0.7071 -0.7071 0.7071 210.5461 5.0167)" class="st2" width="26.1" height="26.1"/>
</g>
<g>
	<circle class="st1" cx="99.2" cy="310.7" r="25.3"/>
	
		<rect x="86.2" y="297.6" transform="matrix(0.7071 0.7071 -0.7071 0.7071 248.7441 20.8388)" class="st2" width="26.1" height="26.1"/>
</g>
<g>
	<circle class="st1" cx="153.3" cy="94.6" r="25.3"/>
	
		<rect x="140.2" y="81.6" transform="matrix(0.7071 0.7071 -0.7071 0.7071 111.7818 -80.6665)" class="st2" width="26.1" height="26.1"/>
</g>
<g>
	<circle class="st1" cx="153.3" cy="148.6" r="25.3"/>
	
		<rect x="140.2" y="135.6" transform="matrix(0.7071 0.7071 -0.7071 0.7071 149.9799 -64.8443)" class="st2" width="26.1" height="26.1"/>
</g>
<g>
	<circle class="st1" cx="153.3" cy="202.6" r="25.3"/>
	
		<rect x="140.2" y="189.6" transform="matrix(0.7071 0.7071 -0.7071 0.7071 188.1779 -49.0222)" class="st2" width="26.1" height="26.1"/>
</g>
<g>
	<circle class="st1" cx="153.3" cy="256.7" r="25.3"/>
	
		<rect x="140.2" y="243.6" transform="matrix(0.7071 0.7071 -0.7071 0.7071 226.376 -33.2)" class="st2" width="26.1" height="26.1"/>
</g>
<g>
	<circle class="st1" cx="153.3" cy="310.7" r="25.3"/>
	
		<rect x="140.2" y="297.6" transform="matrix(0.7071 0.7071 -0.7071 0.7071 264.574 -17.3779)" class="st2" width="26.1" height="26.1"/>
</g>
<g>
	<circle class="st1" cx="207.3" cy="94.6" r="25.3"/>
	
		<rect x="194.2" y="81.6" transform="matrix(0.7071 0.7071 -0.7071 0.7071 127.604 -118.8645)" class="st2" width="26.1" height="26.1"/>
</g>
<g>
	<circle class="st1" cx="207.3" cy="148.6" r="25.3"/>
	
		<rect x="194.2" y="135.6" transform="matrix(0.7071 0.7071 -0.7071 0.7071 165.802 -103.0424)" class="st2" width="26.1" height="26.1"/>
</g>
<g>
	<circle class="st1" cx="207.3" cy="202.6" r="25.3"/>
	
		<rect x="194.2" y="189.6" transform="matrix(0.7071 0.7071 -0.7071 0.7071 204.0001 -87.2202)" class="st2" width="26.1" height="26.1"/>
</g>
<g>
	<circle class="st1" cx="207.3" cy="256.7" r="25.3"/>
	
		<rect x="194.2" y="243.6" transform="matrix(0.7071 0.7071 -0.7071 0.7071 242.1981 -71.3981)" class="st2" width="26.1" height="26.1"/>
</g>
<g>
	<circle class="st1" cx="207.3" cy="310.7" r="25.3"/>
	
		<rect x="194.2" y="297.6" transform="matrix(0.7071 0.7071 -0.7071 0.7071 280.3961 -55.5759)" class="st2" width="26.1" height="26.1"/>
</g>
<g>
	<circle class="st1" cx="261.3" cy="94.6" r="25.3"/>
	
		<rect x="248.3" y="81.6" transform="matrix(0.7071 0.7071 -0.7071 0.7071 143.4261 -157.0626)" class="st2" width="26.1" height="26.1"/>
</g>
<g>
	<circle class="st1" cx="261.3" cy="148.6" r="25.3"/>
	
		<rect x="248.3" y="135.6" transform="matrix(0.7071 0.7071 -0.7071 0.7071 181.6242 -141.2404)" class="st2" width="26.1" height="26.1"/>
</g>
<g>
	<circle class="st1" cx="261.3" cy="202.6" r="25.3"/>
	
		<rect x="248.3" y="189.6" transform="matrix(0.7071 0.7071 -0.7071 0.7071 219.8222 -125.4183)" class="st2" width="26.1" height="26.1"/>
</g>
<g>
	<circle class="st1" cx="261.3" cy="256.7" r="25.3"/>
	
		<rect x="248.3" y="243.6" transform="matrix(0.7071 0.7071 -0.7071 0.7071 258.0203 -109.5961)" class="st2" width="26.1" height="26.1"/>
</g>
<g>
	<circle class="st1" cx="261.3" cy="310.7" r="25.3"/>
	
		<rect x="248.3" y="297.6" transform="matrix(0.7071 0.7071 -0.7071 0.7071 296.2183 -93.774)" class="st2" width="26.1" height="26.1"/>
</g>
</svg>
